<svg width="710" height="1141" viewBox="0 0 710 1141" fill="none" xmlns="http://www.w3.org/2000/svg">
<rect width="710" height="1141" fill="#F5F5F5"/>
<g id="diente_1">
<path id="Vector 1" d="M46.1161 668.287L64.6161 682.787M64.6161 682.787L68.6161 675.787M64.6161 682.787C71.0083 688.716 72.0377 692.196 67.6161 698.787M4.61609 675.787C3.49615 687.063 4.47309 693.517 9.11609 705.287C14.3955 715.248 20.0956 718.71 33.6161 722.287C45.8369 724.06 55.8614 723.585 80.1161 719.787C88.1161 718.454 102.763 713.798 105.616 709.287C108.966 703.992 109.037 700.383 107.616 699.287L96.6161 680.287L82.1161 654.787C74.798 645.269 69.708 642.159 58.1161 642.287C46.1302 644.195 39.9051 645.974 29.6161 650.287C20.8232 654.256 16.4141 656.827 10.6161 662.787C7.7002 666.962 6.12236 669.393 4.61609 675.787Z" stroke="black"/>
</g>
<g id="diente_2">
<path id="Vector 2" d="M50.616 764.788C58.3894 771.57 62.8733 774.587 71.616 775.288M71.616 775.288C85.5652 774.059 90.6514 770.984 96.616 762.788M71.616 775.288C78.1001 787.025 76.2344 792.158 67.116 799.787M12.616 748.287C12.1919 770.986 14.2193 783.526 19.116 805.787C20.8029 811.318 24.0342 814.13 36.616 818.287C55.1774 821.585 65.6953 820.935 84.616 815.787C97.5812 811.598 104.109 807.569 114.616 797.787C125.311 785.241 128.635 780.102 128.616 772.788C127.462 756.356 125.251 748.922 118.116 739.287C108.684 728.55 100.824 724.745 80.616 723.287C60.4608 723.216 49.3531 723.737 30.616 727.787C23.8467 730.447 20.7535 732.716 16.616 738.287C13.9312 742.18 13.2065 744.371 12.616 748.287Z" stroke="black"/>
</g>
<g id="diente_3">
<path id="Vector 3" d="M66.616 873.787C74.2139 880.104 78.5783 882.659 86.616 884.788C93.0745 886.325 97.9568 879.013 108.616 853.287M108.616 853.287L97.1161 836.788M108.616 853.287C118.008 859.368 123.406 859.964 133.116 859.287M31.116 850.787C30.9532 862.392 34.9811 875.419 47.616 907.288C53.3943 917.337 61.0931 918.658 80.116 915.288C98.8902 913.337 109.395 908.077 128.116 895.288C136.742 888.006 141.186 882.506 147.616 867.287C149.936 855.519 148.893 848.843 142.616 836.788C133.387 818.793 124.14 814.194 101.116 814.788C79.4143 816.853 67.7774 819.989 47.616 827.788C36.7712 834.649 32.8429 839.532 31.116 850.787Z" stroke="black"/>
</g>
<g id="diente_4">
<path id="Vector 4" d="M120.616 929.287C120.616 929.287 129.312 941.811 127.616 950.287M127.616 950.287C125.721 959.765 110.116 967.787 110.116 967.787M127.616 950.287L136.116 957.287M66.6161 943.288C68.6928 930.429 76.9011 924.412 88.1161 917.788C104.857 907.899 127.633 905.651 135.116 906.288C142.599 906.924 149.934 909.876 156.616 916.287C164.999 924.33 170.567 932.505 168.616 944.287C166.793 955.3 162.298 962.01 155.116 969.287C144.734 979.809 135.007 984.128 120.616 988.787C111.142 991.855 104.091 993.102 95.1161 988.787C83.272 983.093 77.0164 975.464 70.6162 964.787C66.2251 957.462 65.2545 951.719 66.6161 943.288Z" stroke="black"/>
</g>
<g id="diente_5">
<path id="Vector 5" d="M152.616 1002.29C152.616 1002.29 152.897 1007.02 154.616 1009.29C159.335 1015.5 163.985 997.158 171.616 998.787C173.248 999.136 174.247 999.334 175.616 1000.29C178.711 1002.44 179.116 1009.29 179.116 1009.29M119.616 1006.79C125.018 982.935 169.527 967.941 168.116 967.787C168.116 967.787 185.131 960.988 195.616 963.787C201.354 965.319 205.51 966.069 209.116 970.787C213.653 976.725 214.874 982.711 214.116 990.787C213.474 997.627 211.713 1000.73 210.116 1006.79C208.351 1013.48 206.783 1017.13 203.616 1023.29C201.533 1027.34 200.657 1029.9 197.616 1033.29C191.722 1039.86 188.331 1043.88 183.116 1047.29C176.731 1051.46 171.739 1051.99 164.116 1051.79C157.251 1051.61 153.554 1050.68 147.116 1048.29C140.813 1045.95 136.838 1044.02 131.616 1039.79C126.761 1035.85 124.184 1032.99 121.616 1027.29C118.312 1019.95 117.839 1014.63 119.616 1006.79Z" stroke="black"/>
</g>
<g id="diente_6">
<path id="Vector 6" d="M223.116 1071.79C223.116 1071.79 220.922 1064.78 217.616 1061.79C214.174 1058.67 206.616 1057.29 206.616 1057.29M185.116 1061.79C185.201 1053.81 188.358 1049.53 192.616 1042.79C196.893 1036.01 200.647 1033.13 206.616 1027.79C213.279 1021.82 217.322 1018.67 225.116 1014.29C228.576 1012.34 229.9 1010.36 237.616 1006.79C239.423 1005.95 239.367 1006.23 242.616 1005.79C245.865 1005.34 253.329 1011 252.116 1010.79C252.116 1010.79 254.523 1013.99 255.616 1016.29C257.919 1021.13 258.15 1024.43 258.116 1029.79C258.053 1039.78 256.318 1045.29 253.616 1054.29C251.398 1061.67 250.099 1066.13 246.616 1073.79C242.816 1082.14 236.224 1089.37 232.116 1092.29C228.008 1095.2 222.362 1097.03 220.116 1097.29C213.65 1098.04 207.045 1094.93 206.616 1093.79C202.226 1091.12 199.893 1089.33 196.116 1085.29C191.133 1080.35 189.067 1077.78 187.616 1073.79C187.616 1073.79 185.065 1066.57 185.116 1061.79Z" stroke="black"/>
</g>
<g id="diente_7">
<path id="Vector 7" d="M250.116 1090.29C254.055 1100.62 274.706 1108.96 280.616 1105.79M237.616 1095.29C243.791 1079.86 249.712 1072.01 261.116 1058.29C267.373 1050.35 271.013 1047.5 277.616 1043.79C282.089 1042.1 284.745 1042.05 289.616 1042.79C293.567 1043.7 295.75 1044.67 299.616 1046.79C301.914 1048.99 302.882 1050.63 303.616 1054.79C304.347 1058.89 304.355 1061.51 303.616 1066.79L299.616 1088.79C297.338 1098.45 295.743 1103.72 292.116 1112.79C289.884 1117.13 288.445 1118.94 285.616 1121.29C281.987 1123.74 279.674 1124.63 274.116 1123.79C268.063 1122.23 264.669 1121.35 258.616 1119.79C252.214 1117.45 248.863 1116.02 244.116 1112.79C240.377 1109.19 238.535 1107.19 237.616 1103.79C236.972 1101.02 236.875 1099.24 237.616 1095.29Z" stroke="black"/>
</g>
<g id="diente_8">
<path id="Vector 8" d="M306.116 1118.29C319.382 1123.37 327.496 1123.15 342.616 1119.79M295.616 1113.79C301.064 1093.41 305.451 1082.82 314.616 1064.79C318.498 1058.64 320.821 1055.71 325.616 1052.79C327.592 1051.95 329.002 1051.58 332.616 1051.29C335.428 1051.22 336.966 1051.49 339.616 1052.79C342.498 1054.6 343.974 1055.8 345.616 1059.29C347.257 1062.62 348.073 1062.75 350.116 1072.79L352.616 1090.79C353.4 1098.73 353.755 1103.29 354.116 1111.79V1122.29C354.108 1128.77 353.232 1130.54 351.116 1133.29C347.739 1136.06 345.883 1137.04 342.616 1138.29C342.616 1138.29 337.616 1140.29 331.616 1140.29C325.616 1140.29 321.09 1139.29 309.616 1136.29C298.142 1133.29 294.086 1125.32 295.616 1113.79Z" stroke="black"/>
</g>
<g id="diente_9">
<path id="Vector 9" d="M371.616 1121.29C384.113 1126.05 391.119 1124.92 403.616 1121.29M357.116 1124.29C356.827 1091.44 357.567 1076.05 363.116 1062.79C367.333 1053.57 369.766 1052.71 374.116 1051.79C381.597 1050.81 385.352 1052.3 392.116 1058.79C403.432 1075.55 408.371 1087.01 414.616 1111.29C416.857 1121.56 414.62 1126.39 406.116 1133.79C394.886 1139.38 387.495 1141.03 371.616 1140.29C363.113 1138.29 359.871 1134.78 357.116 1124.29Z" stroke="black"/>
</g>
<g id="diente_10">
<path id="Vector 10" d="M459.616 1092.79C449.598 1102.05 443.092 1105.46 429.116 1106.79M433.616 1043.29C441.611 1047.79 459.136 1066.54 465.116 1076.79C470.835 1086.59 474.509 1095.96 474.116 1099.29C472.519 1106.45 470.387 1110.07 461.116 1114.79C454.449 1117.62 438.706 1123.37 429.116 1122.79C419.96 1122.23 415.331 1108.42 413.616 1101.79C409.978 1085.85 408.216 1076.89 406.116 1060.79C405.111 1053.01 405.834 1049.8 409.616 1046.29C419.388 1040.63 424.636 1040.09 433.616 1043.29Z" stroke="black"/>
</g>
<g id="diente_11">
<path id="Vector 11" d="M454.616 1030.29C455.375 1043.55 457.29 1051 461.616 1064.29C469.395 1081.2 473.049 1087.62 478.116 1092.79C486.361 1097.66 491.133 1098.7 500.116 1095.29C515.636 1087.57 520.719 1083.19 525.616 1075.29C530.999 1060.14 531.057 1052.77 521.616 1043.29L486.616 1013.79C476.195 1005.17 471.173 1003.3 464.116 1006.79C456.756 1012.76 454.341 1017.34 454.616 1028.79M488.616 1075.29C489.524 1064.88 490.956 1059.68 505.616 1058.79" stroke="black"/>
</g>
<g id="diente_12">
<path id="Vector 12" d="M534.116 1007.79C533.687 1002.64 533.424 999.743 537.616 998.287C540.234 996.695 543.568 1000.24 555.616 1009.79C558.807 1011.99 559.743 1011.11 560.116 1006.29M501.116 1001.79C508.875 1023.66 511.874 1030.81 514.616 1033.79C521.687 1041.96 526.312 1045.3 535.616 1049.29C549.46 1053.46 557.355 1052.31 571.616 1045.29C580.063 1039.76 584.576 1036 591.116 1024.79C595.467 1014.4 595.548 1009.55 591.116 1002.79C580.516 988.349 573.379 981.778 558.116 973.287C544.743 967.485 537.283 964.09 522.616 963.287C512.548 962.867 507.848 964.615 502.116 973.287C498.085 983.408 497.989 989.681 501.116 1001.79Z" stroke="black"/>
</g>
<g id="diente_13">
<path id="Vector 13" d="M594.116 928.288C577.525 940.998 579.387 949.55 602.116 967.288M549.116 957.788C556.614 968.043 561.757 972.971 572.616 980.287C581.19 985.66 587.213 988.008 599.616 991.287C607.845 992.484 612.841 991.565 622.616 986.287C631.679 978.827 635.979 973.92 642.116 963.788C647.54 951.351 648.77 945.483 645.616 938.288C634.457 923.856 627.466 917.046 611.616 910.788C597.732 906.836 590.162 905.864 577.116 906.788C566.173 908.386 561.533 910.625 555.116 916.288C552.116 918.621 545.816 925.688 544.616 935.288C543.416 944.888 547.116 954.288 549.116 957.788Z" stroke="black"/>
</g>
<g id="diente_14">
<path id="Vector 14" d="M581.116 858.788C588.745 861.793 593.28 861.334 602.116 854.288M602.116 854.288L614.116 839.288M602.116 854.288L610.116 869.788C612.616 873.954 618.999 881.542 623.116 883.288C632.371 887.212 645.428 878.288 647.616 871.288M576.116 885.788C583.253 894.806 598.616 904.787 598.616 904.787C598.658 905.306 620.866 912.201 633.616 913.787C647.19 915.131 650.465 916.005 658.616 912.287C665.783 906.728 669.61 893.349 677.116 873.287C682.177 860.058 682.312 853.836 681.116 846.788C676.557 836.427 672.402 831.872 661.116 826.788C645.163 820.617 636.292 818.159 620.616 815.788C604.663 813.908 596.097 812.823 584.116 820.788C574.324 827.297 566.616 845.288 566.616 845.288C566.616 845.288 563.052 855.57 563.616 862.288C564.486 872.646 569.665 877.636 576.116 885.788Z" stroke="black"/>
</g>
<g id="diente_15">
<path id="Vector 15" d="M615.616 763.788C623.281 771.48 627.803 774.288 636.616 774.288M636.616 774.288C652.461 771.934 656.249 769.102 662.116 763.788M636.616 774.288C630.473 791.362 634.253 794.984 643.616 799.288M587.616 783.288C594.551 797.875 602.538 803.942 620.616 812.788C633.837 816.47 642.688 817.987 666.116 817.788C678.375 817.641 683.745 815.231 691.616 808.288C698.063 797.735 699.635 784.983 699.616 752.788C698.145 740.083 695.231 735.006 685.616 730.288C668.695 724.373 657.43 722.735 633.116 723.788C613.707 726.156 605.129 728.608 597.616 736.788C584.923 754.011 582.581 764.177 587.616 783.288Z" stroke="black"/>
</g>
<g id="diente_16">
<path id="Vector 16" d="M644.616 698.788C644.616 698.788 638.616 690.788 647.616 681.788M647.616 681.788C656.616 672.788 668.116 666.788 668.116 666.788M647.616 681.788L641.616 674.288M607.616 709.788C620.335 716.645 628.781 719.25 646.116 721.788C662.933 723.437 672.301 722.278 684.116 720.287C695.304 716.894 699.12 713.134 704.616 701.288C710.169 685.044 709.991 678.791 706.616 670.288C698.348 658.157 691.062 653.425 675.116 647.288C655.817 641.627 645.175 638.822 634.116 650.288C632.056 652.261 628.432 658.217 617.616 677.288C610.422 688.758 607.028 694.405 605.616 698.788C604.104 705.528 604.812 707.648 607.616 709.788Z" stroke="black"/>
</g>
<g id="diente_17">
<path id="Vector 17" d="M41.1936 472.284C46.3962 477.149 48.9767 480.607 52.1936 489.784M52.1936 489.784C63.8792 486.055 68.0134 483.834 73.6936 479.784M52.1936 489.784C54.8698 501.599 53.8649 507.847 50.6936 518.784M7.69363 459.784C17.0291 457.382 50.1929 462.39 98.1936 468.784C107.56 470.894 110.822 477.392 108.694 500.284C105.125 522.485 97.8953 530.891 75.1936 538.284C55.9243 541.71 42.6964 533.633 16.6936 509.284C7.90886 497.475 3.64899 490.52 0.693607 475.784C-0.158348 464.832 1.73838 462.683 7.69363 459.784Z" stroke="black"/>
</g>
<g id="diente_18">
<path id="Vector 18" d="M41.1936 432.284C47.9899 428.015 51.8943 425.795 60.1936 424.284M60.1936 424.284C45.3013 413.195 43.3898 405.428 41.1936 391.284M60.1936 424.284L84.6936 427.784M6.19356 446.284C14.9555 452.906 21.1329 455.689 34.6936 458.784C47.4574 460.615 54.6936 461.088 67.6936 461.284C84.095 459.659 92.263 456.393 105.194 446.284C115.969 429.862 119.892 420.602 114.694 403.784C107.024 388.114 101.167 381.371 86.1936 375.284C59.148 366.316 44.9166 362.455 27.6936 365.784C14.7019 368.969 9.22887 373.656 6.19356 392.784C3.75096 405.913 2.59077 413.259 1.69356 426.284C1.23137 438.587 2.56724 442.256 6.19356 446.284Z" stroke="black"/>
</g>
<g id="diente_19">
<path id="Vector 19" d="M62.1936 302.784C62.1936 302.784 74.0268 314.364 82.1936 311.784M82.1936 311.784C89.5309 309.465 93.6936 295.784 93.6936 295.784M82.1936 311.784C82.1936 311.784 75.6946 325.275 79.1936 332.784M79.1936 332.784C80.1149 334.761 81.7141 336.291 83.6936 337.473M79.1936 332.784L83.6936 337.473M106.694 341.284C106.694 341.284 91.9147 342.381 83.6936 337.473M83.6936 337.473C75.4283 336.736 71.9747 337.184 68.1936 339.284M24.1936 336.284C28.4778 315.52 31.556 304.484 38.6936 286.284C41.5201 280.166 43.8774 277.593 49.6936 274.784C61.0909 272.459 67.0292 273.426 77.6936 274.784C91.4217 277.585 99.0967 279.162 106.694 283.784C129.82 298.946 136.199 306.724 140.194 319.784C142.71 338.501 140.653 346.401 132.694 357.284C118.905 371.521 110.272 374.378 93.6936 372.784C68.5063 368.898 54.2727 366.978 32.6936 354.784C25.7615 347.717 23.2735 343.694 24.1936 336.284Z" stroke="black"/>
</g>
<g id="diente_20">
<path id="Vector 20" d="M95.1936 253.284C101.598 254.296 104.924 251.311 110.694 243.784M110.694 243.784C115.193 231.438 117.95 227.036 123.194 222.784M110.694 243.784C114.865 249.586 116.733 252.152 117.694 253.284M60.6936 241.784C60.0107 219.573 63.3545 214.531 69.6936 206.284C79.406 195.243 87.7687 194.237 105.694 197.784C125.075 204.039 134.549 210.528 150.194 224.784C160.374 234.814 162.029 240.831 162.694 251.784C161.05 259.216 156.691 263.762 145.194 272.284C136.59 276.247 125.766 278.915 92.6936 276.784C75.5818 272.83 69.623 267.975 64.1936 258.284C62.7753 255.069 62.0127 251.307 60.6936 241.784Z" stroke="black"/>
</g>
<g id="diente_21">
<path id="Vector 21" d="M124.194 191.784C143.724 181.848 148.576 172.03 146.694 147.284M96.1936 149.784C92.7181 166.472 95.8313 175.259 107.194 190.284C123.53 205.038 131.765 208.375 145.694 210.284C168.786 208.712 177.307 203.894 185.194 188.784C191.039 173.432 190.366 165.535 181.694 152.784C164.174 134.237 153.432 126.982 130.694 126.284C121.393 126.509 116.226 127.678 107.194 133.784C101.308 138.713 99.2045 142.469 96.1936 149.784Z" stroke="black"/>
</g>
<g id="diente_22">
<path id="Vector 22" d="M163.194 101.784C170.537 101.675 173.115 99.1187 175.694 91.2837M140.694 103.784C141.004 116.571 145.329 123.428 164.694 134.784C183.679 142.76 192.675 142.421 208.194 140.284C216.994 136.292 220.999 132.961 223.694 121.784C225.45 106.727 220.941 97.411 209.694 80.2837C195.962 65.5035 188.176 63.078 174.194 65.2837C155.924 71.6556 147.461 78.2009 140.694 103.784Z" stroke="black"/>
</g>
<g id="diente_23">
<path id="Vector 23" d="M209.194 66.2836C224.31 50.3295 234.747 44.2526 256.694 38.2836M199.194 63.7837C209.803 80.5812 217.61 87.4651 235.194 96.7836C245.118 100.481 251.141 100.036 262.694 94.7836C272.519 89.3543 276.003 84.9629 274.194 71.7836C269.779 38.361 266.921 25.9307 260.694 22.2836C252.541 18.1045 247.739 19.3613 239.194 21.2836C221.459 28.4039 212.666 33.1401 202.694 45.2836C197.036 54.3303 196.943 59.2633 199.194 63.7837Z" stroke="black"/>
</g>
<g id="diente_24">
<path id="Vector 24" d="M278.194 33.7837C299.184 23.0846 312.742 21.434 338.694 22.7837M268.194 27.7837C274.343 52.7353 280.74 60.8586 294.194 71.2837C304.039 75.3106 308.803 75.8085 316.694 75.2837C327.803 73.9009 332.976 72.062 340.194 66.7837C349.462 55.2071 352.39 45.8211 352.694 22.7837C349.633 9.49922 344.98 4.92675 333.194 2.28373C312.23 -0.91364 300.648 -0.501224 280.694 9.28373C272.316 15.3084 269.214 19.2349 268.194 27.7837Z" stroke="black"/>
</g>
<g id="diente_25">
<path id="Vector 25" d="M365.694 22.7837C389.339 19.3271 402.226 21.6402 424.694 31.7837M355.194 31.7837C359.431 51.3263 362.476 57.1321 368.194 65.2837C376.291 72.1027 380.461 73.5499 387.694 74.7837C399.482 75.6749 404.881 74.8099 413.194 71.7837C422.625 65.4707 427.883 58.9915 437.194 42.7837C440.171 32.1111 442.405 26.0833 434.194 16.2837C416.895 3.45003 405.096 0.454112 377.694 1.28367C366.285 3.61407 362.11 6.73591 357.694 14.7837C354.854 22.4276 354.418 26.0892 355.194 31.7837Z" stroke="black"/>
</g>
<g id="diente_26">
<path id="Vector 26" d="M454.194 38.2837C472.969 42.8633 482.303 49.0226 497.194 65.2837M435.694 86.7837C432.505 82.312 433.641 73.319 437.694 52.7837L443.194 26.7837C445.838 21.182 448.397 19.6564 454.194 18.7837C459.327 18.638 463.977 19.7013 477.194 24.7837C483.304 27.1486 487.976 29.7615 498.694 36.7837C505.998 42.973 508.499 46.1391 510.194 51.2837C511.848 58.109 510.503 62.4939 506.194 70.7837C497.896 80.931 493.191 85.4261 484.694 90.7837C475.987 96.0876 470.824 98.5302 459.694 99.2837C450.555 98.4358 445.359 96.7086 435.694 86.7837Z" stroke="black"/>
</g>
<g id="diente_27">
<path id="Vector 27" d="M533.194 90.2837C535.422 96.0337 537.712 98.5574 543.694 101.784M485.194 112.784C488.166 98.1368 490.827 90.2432 502.194 78.2837C509.018 70.8499 513.672 68.3316 522.694 65.2837C529.084 63.8374 533.786 65.2418 542.694 68.7837C551.938 73.7333 556.49 78.2637 563.194 90.2837C567.869 99.3181 569.212 104.578 566.194 114.784C561.127 123.381 557.927 126.576 551.694 129.784C538.505 136.299 530.971 138.66 517.694 140.284C507.425 140.974 501.206 142.322 493.694 137.284C486.896 129.85 483.185 125.62 485.194 112.784Z" stroke="black"/>
</g>
<g id="diente_28">
<path id="Vector 28" d="M561.193 145.284C560.45 178.559 566.881 185.078 581.693 190.784M520.193 172.784C527.32 149.193 532.316 142.477 542.193 136.784C552.581 129.974 559.165 127.575 572.193 125.784C583.509 125.816 589.275 126.982 598.193 131.784C608.878 139.432 612.588 144.811 613.193 157.284C613.449 171.304 610.382 178.303 601.193 189.784C592.612 198.335 586.306 202.454 571.693 208.284C559.556 211.046 552.84 213.065 538.693 205.284C524.612 192.915 518.857 185.88 520.193 172.784Z" stroke="black"/>
</g>
<g id="diente_29">
<path id="Vector 29" d="M581.194 222.284C590.517 225.284 594.402 229.208 597.694 242.284M597.694 242.284C597.694 242.284 595.194 252.284 592.694 252.284M597.694 242.284C602.903 252.38 606.982 253.023 614.694 252.284M544.694 245.284C551.762 227.784 559.137 219.143 581.194 206.784C594.034 199.981 601.38 197.358 614.694 194.784C625.948 193.822 631.479 197.25 640.194 209.284C648.752 223.927 649.885 233.751 646.194 253.784C641.356 266.022 635.734 270.871 620.194 275.784C600.888 279.127 588.672 278.83 562.694 271.784C548.537 263.055 543.183 257.574 544.694 245.284Z" stroke="black"/>
</g>
<g id="diente_30">
<path id="Vector 30" d="M614.193 292.284C615.555 296.243 616.147 298.396 623.693 304.784M623.693 304.784C633.693 307.284 636.187 303.869 644.193 303.284M623.693 304.784C629.225 316.121 630.519 322.473 627.193 333.784M627.193 333.784C624.649 338.178 616.854 339.295 598.193 340.284M627.193 333.784C634.753 342.775 639.246 340.888 647.193 339.284M569.693 314.284C584.038 290.997 596.042 283.686 621.693 276.784C636.952 274.076 644.815 273.615 658.193 273.784C665.521 275.729 668.84 279.881 672.693 295.284L683.693 336.784C683.29 348.253 678.065 353.689 663.193 362.284C638.49 370.49 624.599 373.118 599.693 371.284C580.917 367.411 574.639 361.104 569.693 343.784C565.16 332.04 565.022 325.576 569.693 314.284Z" stroke="black"/>
</g>
<g id="diente_31">
<path id="Vector 31" d="M621.193 428.784C628.298 426.052 633.535 424.775 649.193 423.784M649.193 423.784C661.188 418.091 664.493 409.375 668.193 390.284M649.193 423.784C654.466 428.426 657.522 430.686 664.693 428.784M594.693 396.784C601.52 379.942 622.511 374.299 664.693 365.284C685.731 363.082 693.57 367.468 700.193 385.784L708.193 428.784C710.558 442.041 705.66 447.725 687.693 455.284C652.299 466.665 634.044 465.601 605.193 446.284C591.992 433.929 587.963 424.417 594.693 396.784Z" stroke="black"/>
</g>
<g id="diente_32">
<path id="Vector 32" d="M634.194 479.784C634.194 479.784 646.24 494.79 655.194 491.784M655.194 491.784C659.584 492.181 662.405 475.004 665.694 472.284M655.194 491.784C652.773 506.761 652.723 513.189 657.194 517.784M601.194 474.784C598.817 497.572 600.513 504.866 604.694 515.784C613.358 531.263 620.431 536.222 637.694 537.284C663.479 535.941 673.01 530.253 685.694 515.784C703.32 492.631 711.367 480.485 708.194 466.784C701.832 456.993 693.899 456.691 676.694 459.784C657.692 465.139 645.65 466.394 622.694 466.784C606.376 467.7 601.687 469.474 601.194 474.784Z" stroke="black"/>
</g>
</svg>
